<?xml version="1.0" encoding="utf-8"?>
<!-- Generator: Adobe Illustrator 27.5.0, SVG Export Plug-In . SVG Version: 6.00 Build 0)  -->
<svg version="1.1" xmlns="http://www.w3.org/2000/svg" xmlns:xlink="http://www.w3.org/1999/xlink" x="0px" y="0px"
	 viewBox="0 0 500 500" style="enable-background:new 0 0 500 500;" xml:space="preserve">
<g id="Background_Complete">
	<g>
		<rect y="382.398" style="fill:#EBEBEB;" width="500" height="0.25"/>
		<rect x="416.779" y="398.494" style="fill:#EBEBEB;" width="33.122" height="0.25"/>
		<rect x="322.527" y="401.208" style="fill:#EBEBEB;" width="8.693" height="0.25"/>
		<rect x="396.586" y="389.208" style="fill:#EBEBEB;" width="19.192" height="0.25"/>
		<rect x="52.459" y="390.888" style="fill:#EBEBEB;" width="43.193" height="0.25"/>
		<rect x="104.556" y="390.888" style="fill:#EBEBEB;" width="6.333" height="0.25"/>
		<rect x="131.471" y="395.111" style="fill:#EBEBEB;" width="93.676" height="0.25"/>
		<path style="fill:#EBEBEB;" d="M237.014,337.8H43.915c-3.147,0-5.708-2.561-5.708-5.708V60.66c0-3.147,2.561-5.708,5.708-5.708
			h193.099c3.146,0,5.707,2.561,5.707,5.708v271.432C242.721,335.239,240.16,337.8,237.014,337.8z M43.915,55.203
			c-3.01,0-5.458,2.448-5.458,5.458v271.432c0,3.01,2.448,5.458,5.458,5.458h193.099c3.009,0,5.457-2.448,5.457-5.458V60.66
			c0-3.009-2.448-5.458-5.457-5.458H43.915z"/>
		<path style="fill:#EBEBEB;" d="M453.31,337.8H260.212c-3.147,0-5.707-2.561-5.707-5.708V60.66c0-3.147,2.561-5.708,5.707-5.708
			H453.31c3.148,0,5.708,2.561,5.708,5.708v271.432C459.019,335.239,456.458,337.8,453.31,337.8z M260.212,55.203
			c-3.009,0-5.457,2.448-5.457,5.458v271.432c0,3.01,2.448,5.458,5.457,5.458H453.31c3.01,0,5.458-2.448,5.458-5.458V60.66
			c0-3.009-2.448-5.458-5.458-5.458H260.212z"/>
	</g>
	<g>
		<g>
			
				<rect x="85.991" y="74.962" transform="matrix(-1.836970e-16 1 -1 -1.836970e-16 304.5191 6.9812)" style="fill:#E0E0E0;" width="125.557" height="161.576"/>
			
				<rect x="70.22" y="95.212" transform="matrix(-1 -1.224647e-16 1.224647e-16 -1 297.5379 311.5007)" style="fill:#EBEBEB;" width="157.097" height="121.078"/>
			<line style="fill:none;stroke:#E0E0E0;stroke-miterlimit:10;" x1="146.133" y1="117.083" x2="146.133" y2="133.967"/>
			<polyline style="fill:none;stroke:#E0E0E0;stroke-miterlimit:10;" points="107.739,188.321 107.739,133.967 179.005,133.967 
				179.005,165.147 			"/>
			<polyline style="fill:none;stroke:#E0E0E0;stroke-miterlimit:10;" points="160.566,181.741 160.566,165.147 199.743,165.147 
				199.743,182.321 			"/>
			<rect x="128.113" y="110.879" style="fill:#F5F5F5;" width="36.041" height="12.407"/>
			<rect x="162.361" y="140.648" style="fill:#F5F5F5;" width="34.351" height="13.478"/>
			<rect x="148.769" y="174.789" style="fill:#F5F5F5;" width="23.594" height="13.904"/>
			<rect x="187.111" y="177.04" style="fill:#F5F5F5;" width="25.266" height="10.561"/>
			<rect x="91.159" y="143.502" style="fill:#F5F5F5;" width="39.026" height="18.007"/>
			<rect x="95.277" y="181.741" style="fill:#F5F5F5;" width="24.924" height="13.16"/>
			
				<rect x="142.328" y="130.6" transform="matrix(0.7071 0.7071 -0.7071 0.7071 137.8383 -63.9654)" style="fill:#F5F5F5;" width="7.61" height="7.61"/>
			
				<rect x="175.199" y="161.341" transform="matrix(0.7071 0.7071 -0.7071 0.7071 169.2055 -78.2051)" style="fill:#F5F5F5;" width="7.61" height="7.61"/>
		</g>
		<g>
			<rect x="295.367" y="114.119" style="fill:#E0E0E0;" width="99.595" height="5.117"/>
			<rect x="299.951" y="95.257" style="fill:#EBEBEB;" width="4.388" height="18.862"/>
			<rect x="321.167" y="95.257" style="fill:#EBEBEB;" width="4.388" height="18.862"/>
			
				<rect x="346.886" y="95.021" transform="matrix(0.9855 -0.1698 0.1698 0.9855 -12.6685 60.8041)" style="fill:#EBEBEB;" width="4.388" height="18.862"/>
			<rect x="305.387" y="97.743" style="fill:#EBEBEB;" width="4.388" height="16.377"/>
			<rect x="315.473" y="97.743" style="fill:#EBEBEB;" width="4.388" height="16.377"/>
			<rect x="340.929" y="97.743" style="fill:#EBEBEB;" width="4.388" height="16.377"/>
			
				<rect x="328.758" y="97.462" transform="matrix(0.9762 -0.2169 0.2169 0.9762 -15.0361 74.2906)" style="fill:#EBEBEB;" width="4.388" height="16.377"/>
			<rect x="311.375" y="94.32" style="fill:#EBEBEB;" width="2.194" height="19.799"/>
			<rect x="337.474" y="94.32" style="fill:#EBEBEB;" width="2.194" height="19.799"/>
			<rect x="364.026" y="99.19" style="fill:#EBEBEB;" width="21.379" height="14.76"/>
		</g>
		<g>
			
				<rect x="295.367" y="152.32" transform="matrix(-1 -1.224647e-16 1.224647e-16 -1 690.3281 309.7579)" style="fill:#E0E0E0;" width="99.595" height="5.117"/>
			
				<rect x="385.99" y="133.458" transform="matrix(-1 -1.224647e-16 1.224647e-16 -1 776.3672 285.7784)" style="fill:#EBEBEB;" width="4.388" height="18.862"/>
			
				<rect x="364.773" y="133.458" transform="matrix(-1 -1.224647e-16 1.224647e-16 -1 733.9347 285.7784)" style="fill:#EBEBEB;" width="4.388" height="18.862"/>
			
				<rect x="339.054" y="133.222" transform="matrix(-0.9855 -0.1698 0.1698 -0.9855 653.3099 341.1924)" style="fill:#EBEBEB;" width="4.388" height="18.862"/>
			
				<rect x="380.553" y="135.944" transform="matrix(-1 -1.224647e-16 1.224647e-16 -1 765.4936 288.2641)" style="fill:#EBEBEB;" width="4.388" height="16.377"/>
			
				<rect x="370.468" y="135.944" transform="matrix(-1 -1.224647e-16 1.224647e-16 -1 745.3233 288.2641)" style="fill:#EBEBEB;" width="4.388" height="16.377"/>
			
				<rect x="345.012" y="135.944" transform="matrix(-1 -1.224647e-16 1.224647e-16 -1 694.4113 288.2641)" style="fill:#EBEBEB;" width="4.388" height="16.377"/>
			
				<rect x="357.182" y="135.663" transform="matrix(-0.9762 -0.2169 0.2169 -0.9762 679.0001 362.2189)" style="fill:#EBEBEB;" width="4.388" height="16.377"/>
			
				<rect x="376.759" y="132.521" transform="matrix(-1 -1.224647e-16 1.224647e-16 -1 755.7116 284.8419)" style="fill:#EBEBEB;" width="2.194" height="19.799"/>
			
				<rect x="350.661" y="132.521" transform="matrix(-1 -1.224647e-16 1.224647e-16 -1 703.5153 284.8419)" style="fill:#EBEBEB;" width="2.194" height="19.799"/>
			
				<rect x="304.923" y="137.391" transform="matrix(-1 -1.224647e-16 1.224647e-16 -1 631.2254 289.5425)" style="fill:#EBEBEB;" width="21.379" height="14.76"/>
		</g>
		<g>
			<rect x="317.294" y="182.529" style="fill:#F5F5F5;" width="55.855" height="199.135"/>
			<rect x="322.11" y="188.214" style="fill:#EBEBEB;" width="46.222" height="188.944"/>
			<rect x="330.525" y="193.766" style="fill:#E0E0E0;" width="29.392" height="1.946"/>
			<rect x="330.525" y="202.184" style="fill:#E0E0E0;" width="29.392" height="1.946"/>
			<rect x="330.525" y="210.601" style="fill:#E0E0E0;" width="29.392" height="1.946"/>
			<rect x="330.525" y="219.019" style="fill:#E0E0E0;" width="29.392" height="1.946"/>
			<rect x="330.525" y="227.437" style="fill:#E0E0E0;" width="29.392" height="1.946"/>
			<rect x="330.525" y="235.855" style="fill:#E0E0E0;" width="29.392" height="1.946"/>
			<rect x="330.525" y="244.272" style="fill:#E0E0E0;" width="29.392" height="1.946"/>
			<rect x="330.525" y="312.732" style="fill:#E0E0E0;" width="29.392" height="1.946"/>
			<rect x="330.525" y="321.149" style="fill:#E0E0E0;" width="29.392" height="1.946"/>
			<rect x="330.525" y="329.567" style="fill:#E0E0E0;" width="29.392" height="1.946"/>
			<rect x="330.525" y="337.985" style="fill:#E0E0E0;" width="29.392" height="1.946"/>
			<rect x="330.525" y="346.403" style="fill:#E0E0E0;" width="29.392" height="1.946"/>
			<rect x="330.525" y="354.82" style="fill:#E0E0E0;" width="29.392" height="1.946"/>
			<rect x="330.525" y="363.238" style="fill:#E0E0E0;" width="29.392" height="1.946"/>
			<path style="fill:#E0E0E0;" d="M361.364,273.085c0,1.795-1.455,3.249-3.25,3.249c-1.795,0-3.249-1.455-3.249-3.249
				s1.455-3.25,3.249-3.25C359.909,269.836,361.364,271.29,361.364,273.085z"/>
		</g>
		<g>
			<rect x="259.794" y="182.529" style="fill:#F5F5F5;" width="55.855" height="199.135"/>
			<rect x="264.61" y="188.214" style="fill:#EBEBEB;" width="46.222" height="188.944"/>
			<rect x="273.025" y="193.766" style="fill:#E0E0E0;" width="29.392" height="1.946"/>
			<rect x="273.025" y="202.184" style="fill:#E0E0E0;" width="29.392" height="1.946"/>
			<rect x="273.025" y="210.601" style="fill:#E0E0E0;" width="29.392" height="1.946"/>
			<rect x="273.025" y="219.019" style="fill:#E0E0E0;" width="29.392" height="1.946"/>
			<rect x="273.025" y="227.437" style="fill:#E0E0E0;" width="29.392" height="1.946"/>
			<rect x="273.025" y="235.855" style="fill:#E0E0E0;" width="29.392" height="1.946"/>
			<rect x="273.025" y="244.272" style="fill:#E0E0E0;" width="29.392" height="1.946"/>
			<rect x="273.025" y="312.732" style="fill:#E0E0E0;" width="29.392" height="1.946"/>
			<rect x="273.025" y="321.149" style="fill:#E0E0E0;" width="29.392" height="1.946"/>
			<rect x="273.025" y="329.567" style="fill:#E0E0E0;" width="29.392" height="1.946"/>
			<rect x="273.025" y="337.985" style="fill:#E0E0E0;" width="29.392" height="1.946"/>
			<rect x="273.025" y="346.403" style="fill:#E0E0E0;" width="29.392" height="1.946"/>
			<rect x="273.025" y="354.82" style="fill:#E0E0E0;" width="29.392" height="1.946"/>
			<rect x="273.025" y="363.238" style="fill:#E0E0E0;" width="29.392" height="1.946"/>
			<path style="fill:#E0E0E0;" d="M303.864,273.085c0,1.795-1.455,3.249-3.25,3.249c-1.795,0-3.249-1.455-3.249-3.249
				s1.455-3.25,3.249-3.25C302.409,269.836,303.864,271.29,303.864,273.085z"/>
		</g>
		<g>
			<rect x="374.794" y="182.529" style="fill:#F5F5F5;" width="55.855" height="199.135"/>
			<rect x="379.61" y="188.214" style="fill:#EBEBEB;" width="46.222" height="188.944"/>
			<rect x="388.025" y="193.766" style="fill:#E0E0E0;" width="29.392" height="1.946"/>
			<rect x="388.025" y="202.184" style="fill:#E0E0E0;" width="29.392" height="1.946"/>
			<rect x="388.025" y="210.601" style="fill:#E0E0E0;" width="29.392" height="1.946"/>
			<rect x="388.025" y="219.019" style="fill:#E0E0E0;" width="29.392" height="1.946"/>
			<rect x="388.025" y="227.437" style="fill:#E0E0E0;" width="29.392" height="1.946"/>
			<rect x="388.025" y="235.855" style="fill:#E0E0E0;" width="29.392" height="1.946"/>
			<rect x="388.025" y="244.272" style="fill:#E0E0E0;" width="29.392" height="1.946"/>
			<rect x="388.025" y="312.732" style="fill:#E0E0E0;" width="29.392" height="1.946"/>
			<rect x="388.025" y="321.149" style="fill:#E0E0E0;" width="29.392" height="1.946"/>
			<rect x="388.025" y="329.567" style="fill:#E0E0E0;" width="29.392" height="1.946"/>
			<rect x="388.025" y="337.985" style="fill:#E0E0E0;" width="29.392" height="1.946"/>
			<rect x="388.025" y="346.403" style="fill:#E0E0E0;" width="29.392" height="1.946"/>
			<rect x="388.025" y="354.82" style="fill:#E0E0E0;" width="29.392" height="1.946"/>
			<rect x="388.025" y="363.238" style="fill:#E0E0E0;" width="29.392" height="1.946"/>
			<path style="fill:#E0E0E0;" d="M418.864,273.085c0,1.795-1.455,3.249-3.25,3.249c-1.795,0-3.249-1.455-3.249-3.249
				s1.455-3.25,3.249-3.25C417.409,269.836,418.864,271.29,418.864,273.085z"/>
		</g>
	</g>
</g>
<g id="Background_Simple" style="display:none;">
	<g style="display:inline;">
		<path style="fill:#407BFF;" d="M108.508,124.582c11.531-11.722,24.51-20.879,37.993-26.075
			c46.765-18.024,108.2-2.099,125.321,48.879c5.712,17.008,11.553,33.827,17.732,50.76c4.442,12.175,10.28,24.345,20.184,32.704
			c30.149,25.444,74.077-23.795,100.483,15.295c20.73,30.689,8.066,72.807-22.365,92.604
			c-38.343,24.944-85.857,0.056-113.972-29.184c-15.035-15.636-32.874-26.45-55.282-24.785
			c-16.161,1.201-31.512,7.182-46.937,12.151c-27.659,8.911-63.453,13.315-85.805-9.653
			C43.734,243.991,66.511,167.275,108.508,124.582z"/>
		<path style="opacity:0.9;fill:#FFFFFF;" d="M108.508,124.582c11.531-11.722,24.51-20.879,37.993-26.075
			c46.765-18.024,108.2-2.099,125.321,48.879c5.712,17.008,11.553,33.827,17.732,50.76c4.442,12.175,10.28,24.345,20.184,32.704
			c30.149,25.444,74.077-23.795,100.483,15.295c20.73,30.689,8.066,72.807-22.365,92.604
			c-38.343,24.944-85.857,0.056-113.972-29.184c-15.035-15.636-32.874-26.45-55.282-24.785
			c-16.161,1.201-31.512,7.182-46.937,12.151c-27.659,8.911-63.453,13.315-85.805-9.653
			C43.734,243.991,66.511,167.275,108.508,124.582z"/>
	</g>
</g>
<g id="Shadow_1_">
	<ellipse id="_x3C_Path_x3E__359_" style="fill:#F5F5F5;" cx="250" cy="416.238" rx="193.889" ry="11.323"/>
</g>
<g id="Plant">
	<g>
		<path style="fill:#407BFF;" d="M93.91,402.727c0,0-5.266-24.885,4.324-38.366c9.59-13.48-8.668-0.155-10.768,12.463
			c0,0-3.147-22.562,6.156-38.436c9.303-15.874-8.103-2.84-9.581,13.516c0,0-2.85-20.129,1.424-31.44
			c4.274-11.311-3.162-4.038-6.021,3.053c-2.859,7.09,0.892,24.648,0.892,24.648s-7.46-32.466-14.522-29.882
			s10.557,23.855,13.001,34.921c0,0-8.327-14.891-14.644-11.791c-6.317,3.1,9.784,4.642,17.156,26.846l2.59,10.411
			c0,0-7.662-14.696-12.672-10.06c-5.01,4.636,14.855,12.638,19.471,34.912L93.91,402.727z"/>
		<path style="fill:#407BFF;" d="M92.879,404.16c0,0-1.107-31.375-16.61-44.663s10.335-2.768,16.61,11.719
			c0,0-2.953-27.961-18.825-44.202c-15.872-16.241,8.859-5.816,15.503,13.333c0,0-2.584-24.958-11.074-37.232
			c-8.49-12.275,2.584-5.778,8.121,1.863c5.537,7.641,6.275,29.788,6.275,29.788s-0.738-41.108,8.49-40.117
			c9.228,0.991-5.537,31.718-5.168,45.699c0,0,5.537-20.317,14.027-18.486c8.49,1.831-10.335,8.475-12.55,37.266v13.241
			c0,0,4.799-19.885,12.181-15.825c7.382,4.06-14.027,19.563-12.919,47.616H92.879z"/>
		<path style="opacity:0.2;fill:#FFFFFF;enable-background:new    ;" d="M92.879,404.16c0,0-1.107-31.375-16.61-44.663
			s10.335-2.768,16.61,11.719c0,0-2.953-27.961-18.825-44.202c-15.872-16.241,8.859-5.816,15.503,13.333
			c0,0-2.584-24.958-11.074-37.232c-8.49-12.275,2.584-5.778,8.121,1.863c5.537,7.641,6.275,29.788,6.275,29.788
			s-0.738-41.108,8.49-40.117c9.228,0.991-5.537,31.718-5.168,45.699c0,0,5.537-20.317,14.027-18.486
			c8.49,1.831-10.335,8.475-12.55,37.266v13.241c0,0,4.799-19.885,12.181-15.825c7.382,4.06-14.027,19.563-12.919,47.616H92.879z"/>
		<path style="fill:#263238;" d="M106.419,418.242H82.827c-6.072,0-10.994-4.922-10.994-10.994v-4.923h45.581v4.923
			C117.414,413.32,112.491,418.242,106.419,418.242z"/>
		<path style="fill:#263238;" d="M65.864,399.703v3.475c0,2.326,1.885,4.211,4.211,4.211h49.096c2.326,0,4.211-1.885,4.211-4.211
			v-3.475H65.864z"/>
		<path style="opacity:0.2;fill:#FFFFFF;enable-background:new    ;" d="M65.864,399.703v3.475c0,2.326,1.885,4.211,4.211,4.211
			h49.096c2.326,0,4.211-1.885,4.211-4.211v-3.475H65.864z"/>
	</g>
</g>
<g id="Trash_bin">
	<g>
		<g>
			<path style="fill:#407BFF;" d="M419.411,398.701c0.796-1.335-0.326-3.345-1.881-3.368c0.681-1.917,0.009-4.233-1.592-5.487
				c-0.202-0.158-0.434-0.307-0.691-0.307c-0.275-0.001-0.519,0.167-0.742,0.327c-1.465,1.052-2.929,2.104-4.394,3.157
				c-0.335,0.241-0.682,0.495-0.872,0.862c-0.898,1.74,2.34,3.97,1.008,5.406c-0.382,0.412-0.998,0.498-1.475,0.796
				c-1.046,0.654-1.172,2.089-1.659,3.222c-0.487,1.133-2.187,2.012-2.837,0.964c0.48-1.087-0.973-2.023-2.153-2.161
				c-1.164-0.136-2.412-0.202-3.064-1.31c-1.674,1.463-5.422-2.619-5.336-4.265c-1.376,0.105-2.313,1.394-2.615,2.682
				c-0.312,1.337-0.119,2.731-0.141,4.102c-0.042,2.665-0.902,5.276-0.855,7.94c0.037,2.074,0.838,4.377,2.737,5.211
				c0.914,0.402,1.947,0.402,2.945,0.396c7.207-0.046,14.414-0.092,21.621-0.138c0.519-0.003,1.06-0.012,1.52-0.252
				c0.975-0.509,1.182-1.79,1.272-2.887c0.387-4.697,0.774-9.394,1.161-14.091C420.716,399.234,420.063,398.967,419.411,398.701z"/>
			<path style="opacity:0.3;fill:#FFFFFF;enable-background:new    ;" d="M419.411,398.701c0.796-1.335-0.326-3.345-1.881-3.368
				c0.681-1.917,0.009-4.233-1.592-5.487c-0.202-0.158-0.434-0.307-0.691-0.307c-0.275-0.001-0.519,0.167-0.742,0.327
				c-1.465,1.052-2.929,2.104-4.394,3.157c-0.335,0.241-0.682,0.495-0.872,0.862c-0.898,1.74,2.34,3.97,1.008,5.406
				c-0.382,0.412-0.998,0.498-1.475,0.796c-1.046,0.654-1.172,2.089-1.659,3.222c-0.487,1.133-2.187,2.012-2.837,0.964
				c0.48-1.087-0.973-2.023-2.153-2.161c-1.164-0.136-2.412-0.202-3.064-1.31c-1.674,1.463-5.422-2.619-5.336-4.265
				c-1.376,0.105-2.313,1.394-2.615,2.682c-0.312,1.337-0.119,2.731-0.141,4.102c-0.042,2.665-0.902,5.276-0.855,7.94
				c0.037,2.074,0.838,4.377,2.737,5.211c0.914,0.402,1.947,0.402,2.945,0.396c7.207-0.046,14.414-0.092,21.621-0.138
				c0.519-0.003,1.06-0.012,1.52-0.252c0.975-0.509,1.182-1.79,1.272-2.887c0.387-4.697,0.774-9.394,1.161-14.091
				C420.716,399.234,420.063,398.967,419.411,398.701z"/>
		</g>
		<g>
			<g>
				<path style="fill:#407BFF;" d="M420.673,375.849h-2.428h-6.684h-2.436h-6.676h-2.436h-6.676h-2.436h-3.776l0.276,3.389
					l0.197,2.42l0.512,6.298l0.292,3.618l0.386,4.816l0.165,2.065l0.055,0.615l0.197,2.428l0.268,3.326l0.166,2.065l0.173,2.097
					l0.197,2.428l0.15,1.837l0.165,2.065l0.071,0.899h4.414h3.728h5.384h3.728h5.384h3.728h4.422l0.071-0.899l0.165-2.057
					l0.15-1.852l0.197-2.428l0.173-2.089l0.165-2.065l0.268-3.334l0.197-2.42l0.048-0.615l0.165-2.065l0.394-4.816l0.292-3.61
					l0.504-6.306l0.197-2.42l0.276-3.389H420.673z M422.691,378.071L422.691,378.071l-0.646-0.646h0.702L422.691,378.071z
					 M422.525,380.129l-0.063,0.82l-3.003,3.003l-3.444-3.445l3.082-3.082h0.725L422.525,380.129z M421.659,390.864l-2.199,2.199
					l-3.444-3.445l3.444-3.437l2.381,2.38L421.659,390.864z M389.735,388.563L389.735,388.563l2.38-2.38l3.444,3.437l-3.444,3.445
					l-2.191-2.199L389.735,388.563z M418.348,385.063l-3.445,3.445l-3.444-3.445l3.444-3.444L418.348,385.063z M412.933,377.425
					h3.941l-1.971,1.971L412.933,377.425z M413.784,389.619l-3.437,3.445l-3.444-3.445l3.444-3.437L413.784,389.619z
					 M402.347,394.175l3.445-3.437l3.437,3.437l-3.437,3.445L402.347,394.175z M404.672,398.731l-3.445,3.445l-3.436-3.437
					l3.445-3.444L404.672,398.731z M410.347,395.294l3.437,3.444l-3.437,3.437l-3.444-3.445L410.347,395.294z M405.791,388.508
					l-3.445-3.445l3.445-3.444l3.437,3.444L405.791,388.508z M404.672,389.619l-3.436,3.445l-3.445-3.445l3.445-3.437
					L404.672,389.619z M396.672,388.508l-3.437-3.445l3.437-3.444l3.444,3.444L396.672,388.508z M396.672,390.738l3.444,3.437
					l-3.444,3.445l-3.437-3.445L396.672,390.738z M400.116,403.295l-3.444,3.437l-3.437-3.437l3.437-3.445L400.116,403.295z
					 M401.227,404.406l3.445,3.445l-3.436,3.445l-3.445-3.445L401.227,404.406z M402.347,403.295l3.445-3.445l3.437,3.445
					l-3.437,3.437L402.347,403.295z M410.347,404.406l3.437,3.445l-3.437,3.445l-3.444-3.445L410.347,404.406z M414.903,408.962
					l3.445,3.445l-2.231,2.231h-2.428l-2.231-2.231L414.903,408.962z M411.459,403.295l3.444-3.445l3.445,3.445l-3.445,3.437
					L411.459,403.295z M411.459,394.175l3.444-3.437l3.445,3.437l-3.445,3.445L411.459,394.175z M413.784,380.507l-3.437,3.445
					l-3.444-3.445l3.082-3.082h0.725L413.784,380.507z M405.791,379.396l-1.971-1.971h3.933L405.791,379.396z M404.672,380.507
					l-3.436,3.445l-3.445-3.445l3.082-3.082h0.725L404.672,380.507z M398.642,377.425l-1.971,1.971l-1.962-1.971H398.642z
					 M392.478,377.425l3.082,3.082l-3.444,3.445l-2.995-3.003l-0.063-0.82l2.696-2.704H392.478z M389.53,377.425l-0.639,0.639l0,0
					l-0.055-0.639H389.53z M389.317,383.376l1.687,1.687l-1.435,1.435L389.317,383.376z M390.255,394.924l-0.134-1.632l0,0
					l0.883,0.883L390.255,394.924L390.255,394.924z M390.421,396.997l1.695-1.702l3.444,3.444l-3.444,3.437l-1.387-1.387
					L390.421,396.997z M390.933,403.366l-0.008-0.15l0.079,0.079L390.933,403.366L390.933,403.366z M391.532,410.704l-0.434-5.281
					l1.017-1.017l3.444,3.445l-3.444,3.437L391.532,410.704L391.532,410.704z M391.848,414.637l-0.063-0.788l0.331-0.331
					l1.119,1.119H391.848z M393.235,412.407l3.437-3.445l3.444,3.445l-2.23,2.231h-2.428L393.235,412.407z M400.116,414.637
					l1.119-1.119l1.119,1.119H400.116z M404.577,414.637l-2.23-2.231l3.445-3.445l3.437,3.445l-2.223,2.231H404.577z
					 M409.228,414.637l1.119-1.119l1.119,1.119H409.228z M419.727,414.637h-1.387l1.119-1.119l0.331,0.331L419.727,414.637z
					 M420.051,410.704l-0.591,0.583l-3.444-3.437l3.444-3.445l1.017,1.017L420.051,410.704z M420.657,403.208l-0.016,0.158
					l-0.071-0.071L420.657,403.208L420.657,403.208z M420.854,400.788l-1.395,1.387l-3.444-3.437l3.444-3.444l1.703,1.702
					L420.854,400.788z M421.327,394.932l-0.757-0.757l0.891-0.883L421.327,394.932z M422.266,383.368l-0.252,3.137l-1.443-1.443
					L422.266,383.368L422.266,383.368z"/>
			</g>
			<g style="opacity:0.6;enable-background:new    ;">
				<path style="fill:#FFFFFF;" d="M420.673,375.849h-2.428h-6.684h-2.436h-6.676h-2.436h-6.676h-2.436h-3.776l0.276,3.389
					l0.197,2.42l0.512,6.298l0.292,3.618l0.386,4.816l0.165,2.065l0.055,0.615l0.197,2.428l0.268,3.326l0.166,2.065l0.173,2.097
					l0.197,2.428l0.15,1.837l0.165,2.065l0.071,0.899h4.414h3.728h5.384h3.728h5.384h3.728h4.422l0.071-0.899l0.165-2.057
					l0.15-1.852l0.197-2.428l0.173-2.089l0.165-2.065l0.268-3.334l0.197-2.42l0.048-0.615l0.165-2.065l0.394-4.816l0.292-3.61
					l0.504-6.306l0.197-2.42l0.276-3.389H420.673z M422.691,378.071L422.691,378.071l-0.646-0.646h0.702L422.691,378.071z
					 M422.525,380.129l-0.063,0.82l-3.003,3.003l-3.444-3.445l3.082-3.082h0.725L422.525,380.129z M421.659,390.864l-2.199,2.199
					l-3.444-3.445l3.444-3.437l2.381,2.38L421.659,390.864z M389.735,388.563L389.735,388.563l2.38-2.38l3.444,3.437l-3.444,3.445
					l-2.191-2.199L389.735,388.563z M418.348,385.063l-3.445,3.445l-3.444-3.445l3.444-3.444L418.348,385.063z M412.933,377.425
					h3.941l-1.971,1.971L412.933,377.425z M413.784,389.619l-3.437,3.445l-3.444-3.445l3.444-3.437L413.784,389.619z
					 M402.347,394.175l3.445-3.437l3.437,3.437l-3.437,3.445L402.347,394.175z M404.672,398.731l-3.445,3.445l-3.436-3.437
					l3.445-3.444L404.672,398.731z M410.347,395.294l3.437,3.444l-3.437,3.437l-3.444-3.445L410.347,395.294z M405.791,388.508
					l-3.445-3.445l3.445-3.444l3.437,3.444L405.791,388.508z M404.672,389.619l-3.436,3.445l-3.445-3.445l3.445-3.437
					L404.672,389.619z M396.672,388.508l-3.437-3.445l3.437-3.444l3.444,3.444L396.672,388.508z M396.672,390.738l3.444,3.437
					l-3.444,3.445l-3.437-3.445L396.672,390.738z M400.116,403.295l-3.444,3.437l-3.437-3.437l3.437-3.445L400.116,403.295z
					 M401.227,404.406l3.445,3.445l-3.436,3.445l-3.445-3.445L401.227,404.406z M402.347,403.295l3.445-3.445l3.437,3.445
					l-3.437,3.437L402.347,403.295z M410.347,404.406l3.437,3.445l-3.437,3.445l-3.444-3.445L410.347,404.406z M414.903,408.962
					l3.445,3.445l-2.231,2.231h-2.428l-2.231-2.231L414.903,408.962z M411.459,403.295l3.444-3.445l3.445,3.445l-3.445,3.437
					L411.459,403.295z M411.459,394.175l3.444-3.437l3.445,3.437l-3.445,3.445L411.459,394.175z M413.784,380.507l-3.437,3.445
					l-3.444-3.445l3.082-3.082h0.725L413.784,380.507z M405.791,379.396l-1.971-1.971h3.933L405.791,379.396z M404.672,380.507
					l-3.436,3.445l-3.445-3.445l3.082-3.082h0.725L404.672,380.507z M398.642,377.425l-1.971,1.971l-1.962-1.971H398.642z
					 M392.478,377.425l3.082,3.082l-3.444,3.445l-2.995-3.003l-0.063-0.82l2.696-2.704H392.478z M389.53,377.425l-0.639,0.639l0,0
					l-0.055-0.639H389.53z M389.317,383.376l1.687,1.687l-1.435,1.435L389.317,383.376z M390.255,394.924l-0.134-1.632l0,0
					l0.883,0.883L390.255,394.924L390.255,394.924z M390.421,396.997l1.695-1.702l3.444,3.444l-3.444,3.437l-1.387-1.387
					L390.421,396.997z M390.933,403.366l-0.008-0.15l0.079,0.079L390.933,403.366L390.933,403.366z M391.532,410.704l-0.434-5.281
					l1.017-1.017l3.444,3.445l-3.444,3.437L391.532,410.704L391.532,410.704z M391.848,414.637l-0.063-0.788l0.331-0.331
					l1.119,1.119H391.848z M393.235,412.407l3.437-3.445l3.444,3.445l-2.23,2.231h-2.428L393.235,412.407z M400.116,414.637
					l1.119-1.119l1.119,1.119H400.116z M404.577,414.637l-2.23-2.231l3.445-3.445l3.437,3.445l-2.223,2.231H404.577z
					 M409.228,414.637l1.119-1.119l1.119,1.119H409.228z M419.727,414.637h-1.387l1.119-1.119l0.331,0.331L419.727,414.637z
					 M420.051,410.704l-0.591,0.583l-3.444-3.437l3.444-3.445l1.017,1.017L420.051,410.704z M420.657,403.208l-0.016,0.158
					l-0.071-0.071L420.657,403.208L420.657,403.208z M420.854,400.788l-1.395,1.387l-3.444-3.437l3.444-3.444l1.703,1.702
					L420.854,400.788z M421.327,394.932l-0.757-0.757l0.891-0.883L421.327,394.932z M422.266,383.368l-0.252,3.137l-1.443-1.443
					L422.266,383.368L422.266,383.368z"/>
			</g>
		</g>
		<path style="fill:#407BFF;" d="M386.621,378.831h38.334c0.908,0,1.643-0.736,1.643-1.643v-1.102c0-0.908-0.736-1.643-1.643-1.643
			h-38.334c-0.908,0-1.643,0.736-1.643,1.643v1.102C384.978,378.095,385.714,378.831,386.621,378.831z"/>
		<path style="fill:#407BFF;" d="M421.954,418.242h-32.332c-0.908,0-1.643-0.736-1.643-1.643v-1.102
			c0-0.908,0.736-1.643,1.643-1.643h32.332c0.908,0,1.643,0.736,1.643,1.643v1.102C423.598,417.507,422.862,418.242,421.954,418.242
			z"/>
	</g>
</g>
<g id="Character">
	<g>
		<path style="fill:#263238;" d="M366.926,396.238l-27.878-2.74V362.06h-11.049v31.427l-27.991,2.751
			c-2.779,0.273-4.897,2.61-4.897,5.402v4.186h37.332h2.048h37.332v-4.186C371.823,398.848,369.705,396.511,366.926,396.238z"/>
		<path style="opacity:0.1;fill:#FFFFFF;enable-background:new    ;" d="M366.926,396.238l-27.878-2.74V362.06h-11.049v31.427
			l-27.991,2.751c-2.779,0.273-4.897,2.61-4.897,5.402v4.186h37.332h2.048h37.332v-4.186
			C371.823,398.848,369.705,396.511,366.926,396.238z"/>
		<circle style="fill:#263238;" cx="298.061" cy="411.019" r="7.224"/>
		<circle style="fill:#263238;" cx="368.873" cy="411.019" r="7.224"/>
		<path style="fill:#263238;" d="M336.817,370.481h-6.588c-2.283,0-4.133-1.85-4.133-4.133v-30.763h14.854v30.763
			C340.951,368.63,339.1,370.481,336.817,370.481z"/>
		<path style="opacity:0.2;fill:#FFFFFF;enable-background:new    ;" d="M336.817,370.481h-6.588c-2.283,0-4.133-1.85-4.133-4.133
			v-30.763h14.854v30.763C340.951,368.63,339.1,370.481,336.817,370.481z"/>
		<path style="fill:#263238;" d="M372.109,275.008c0,0-8.278,51.679-24.612,60.576h16.607c0,0,16.405-17.606,21.402-60.576H372.109z
			"/>
		<path style="opacity:0.1;fill:#FFFFFF;enable-background:new    ;" d="M372.109,275.008c0,0-8.278,51.679-24.612,60.576h16.607
			c0,0,16.405-17.606,21.402-60.576H372.109z"/>
		<path style="fill:#407BFF;" d="M300.334,328.278h64.426c2.761,0,5,2.239,5,5v6.31h-74.426v-6.31
			C295.334,330.517,297.573,328.278,300.334,328.278z"/>
		<g>
			<path style="fill:#263238;" d="M294.243,333.933h76.608c1.111,0,2.011,0.9,2.011,2.011v1.632c0,1.111-0.9,2.011-2.011,2.011
				h-76.608c-1.111,0-2.011-0.9-2.011-2.011v-1.632C292.232,334.834,293.133,333.933,294.243,333.933z"/>
			<path style="opacity:0.6;fill:#FFFFFF;enable-background:new    ;" d="M294.243,333.933h76.608c1.111,0,2.011,0.9,2.011,2.011
				v1.632c0,1.111-0.9,2.011-2.011,2.011h-76.608c-1.111,0-2.011-0.9-2.011-2.011v-1.632
				C292.232,334.834,293.133,333.933,294.243,333.933z"/>
		</g>
		<path style="fill:#407BFF;" d="M387.468,285.509h-26.603c-7.793,0-12.855-6.249-11.307-13.958l2.068-10.29
			c1.549-7.709,9.122-13.958,16.916-13.958h26.603c7.793,0,12.855,6.249,11.307,13.958l-2.068,10.29
			C402.834,279.259,395.261,285.509,387.468,285.509z"/>
	</g>
	<g id="_x3C_Group_x3E__134_">
		<path style="fill:#EBB376;" d="M252.724,250.895l-6.89-3.875c0,0-1.786-1.484-3.7-1.739c-1.914-0.255-10.335,0.494-11.356,0.885
			c-1.021,0.391-0.638,8.421,0,8.553c0.638,0.132,10.59,0.251,11.483,0c0.893-0.251,3.062-2.675,3.062-2.675l5.104,3.413
			L252.724,250.895z"/>
		<path style="fill:#407BFF;" d="M283.895,240.125c-3.612,3.242-15.003,16.813-16.771,17.3c-1.769,0.487-18.419-9.987-18.419-9.987
			l-2.36,6.613c0,0,15.653,12.886,20.78,13.775c5.545,0.961,24.05-14.006,24.05-14.006L283.895,240.125z"/>
		<path style="opacity:0.5;fill:#FFFFFF;enable-background:new    ;" d="M291.171,253.821c0,0-4.18,3.377-9.153,6.821
			c-5.496,3.803-11.978,7.683-14.891,7.179c-5.128-0.88-20.783-13.769-20.783-13.769l2.361-6.618c0,0,16.652,10.479,18.423,9.995
			c1.771-0.493,13.159-14.059,16.768-17.3l4.751,8.94L291.171,253.821z"/>
		<path style="opacity:0.2;enable-background:new    ;" d="M291.171,253.821c0,0-4.18,3.377-9.153,6.821
			c0.852-4.712,4.693-9.443,6.628-11.572L291.171,253.821z"/>
		<g>
			<path style="fill:#407BFF;" d="M301.528,282.538c0,0-16.811-29.381-17.632-42.412c0,0,5.777-10.661,13.344-13.031
				c7.567-2.37,27.605-0.998,27.605-0.998s15.854,16.263,24.434,53.258L301.528,282.538z"/>
			<path style="opacity:0.7;fill:#FFFFFF;enable-background:new    ;" d="M301.528,282.538c0,0-16.811-29.381-17.632-42.412
				c0,0,5.777-10.661,13.344-13.031c7.567-2.37,27.605-0.998,27.605-0.998s15.854,16.263,24.434,53.258L301.528,282.538z"/>
			<polygon style="opacity:0.1;enable-background:new    ;" points="313.394,248.514 323.346,246.166 326.982,255.383 
				323.155,259.468 316.909,257.426 			"/>
		</g>
		<polygon style="fill:#EBB376;" points="310.424,408.299 301.89,409.89 294.314,390.862 302.84,389.284 		"/>
		<polygon style="opacity:0.2;enable-background:new    ;" points="302.84,389.284 294.316,390.873 298.649,401.748 
			307.027,399.759 		"/>
		<polygon style="fill:#EBB376;" points="219.614,411.561 212.503,406.581 220.785,387.85 227.881,392.832 		"/>
		<polygon style="opacity:0.2;enable-background:new    ;" points="227.881,392.832 220.779,387.859 216.047,398.566 
			223.333,403.156 		"/>
		<path style="fill:#263238;" d="M338.408,311.449c0,0-12.24,3.754-27.247,8.35c-23.56,7.228-53.932,16.536-54.358,16.681
			c-12.53,29.095-27.885,59.505-27.885,59.505l-14.214-5.834c0,0,15.307-51.088,19.777-63.86
			c7.141-20.387,83.414-33.991,83.414-33.991L338.408,311.449z"/>
		<g>
			<polygon style="fill:#407BFF;" points="228.206,401.342 210.702,393.759 212.976,385.762 232.024,394.454 			"/>
			<polygon style="opacity:0.2;fill:#FFFFFF;" points="228.206,401.342 210.702,393.759 212.976,385.762 232.024,394.454 			"/>
		</g>
		<g>
			<g>
				<path style="fill:#407BFF;" d="M211.409,406.069c0.006-0.007-0.102-0.103-0.097-0.111c0-0.001-0.116-0.104-0.116-0.105
					c0-0.001,0.001-0.001,0.001-0.002c0.001-0.001,0.119,0.096,0.12,0.095c0.058-0.12,1.273-2.256,0.824-3.368
					c-0.127-0.291-0.345-0.487-0.65-0.579c-0.331-0.132-0.694-0.01-0.903,0.278c-0.313,0.443-0.292,1.334-0.12,2.17
					c-0.581-0.723-1.311-1.456-1.922-1.484c-0.263-0.007-0.51,0.122-0.657,0.341c-0.288,0.302-0.374,0.744-0.224,1.134
					c0.294,0.501,0.766,0.873,1.322,1.044c0.713,0.292,1.457,0.504,2.216,0.635c0.017,0.018,0.038,0.035,0.063,0.039
					c0.025-0.003,0.038-0.027,0.061-0.037C211.359,406.111,211.385,406.094,211.409,406.069z M210.923,402.554
					c0.063-0.101,0.189-0.2,0.467-0.115l0.094,0.033c0.15,0.064,0.267,0.188,0.321,0.341c0.275,0.659-0.214,1.948-0.561,2.694
					c-0.035-0.053-0.071-0.107-0.113-0.169C210.766,404.435,210.61,403.052,210.923,402.554z M208.04,404.29
					c-0.077-0.25-0.019-0.522,0.156-0.717c0.07-0.109,0.192-0.173,0.322-0.168c0.609,0.024,1.639,1.268,2.306,2.258
					C209.28,405.321,208.256,404.82,208.04,404.29z"/>
			</g>
			<path style="fill:#263238;" d="M212.4,405.363l8.92,3.901c0.317,0.122,0.476,0.478,0.354,0.795
				c-0.001,0.003-0.002,0.006-0.004,0.009l-2.655,7.255c-0.336,0.769-1.229,1.125-2.002,0.798c-3.09-1.412-4.495-2.24-8.408-3.987
				c-2.406-1.06-7.263-2.927-10.324-4.894c-3.062-1.967-1.035-4.94,0.434-4.378c3.492,1.319,9.107,1.139,12.117,0.36
				C211.355,405.094,211.907,405.143,212.4,405.363z"/>
		</g>
		<g>
			<g>
				<path style="fill:#407BFF;" d="M300.83,408.997c0,0,0-0.001,0-0.002c0-0.003,0-0.004,0-0.007c0-0.151-0.146-2.604-1.05-3.384
					c-0.246-0.201-0.652-0.284-0.964-0.226c-0.355,0.034-0.683,0.304-0.737,0.656c-0.076,0.537,0.32,1.318,0.854,1.982
					c-0.847-0.377-1.847-0.698-2.404-0.442c-0.237,0.114-0.405,0.341-0.435,0.603c-0.118,0.4,0.003,0.833,0.315,1.11
					c0.491,0.311,1.079,0.427,1.651,0.324c0.768-0.066,1.525-0.218,2.26-0.448c0.024,0.009,0.049,0.013,0.073,0.006
					c0.021-0.014,0.022-0.041,0.037-0.061c0.025-0.022,0.208-0.05,0.218-0.082c0.002-0.009,0.182-0.013,0.182-0.022
					C300.83,409.006,300.83,408.998,300.83,408.997z M298.441,406.123c0.01-0.118,0.077-0.264,0.363-0.316l0.099-0.013
					c0.163-0.012,0.323,0.045,0.442,0.156c0.545,0.46,0.699,1.831,0.732,2.653c-0.055-0.031-0.112-0.063-0.178-0.099
					C299.162,407.867,298.391,406.709,298.441,406.123z M296.67,408.985c-0.184-0.187-0.255-0.456-0.189-0.709
					c0.013-0.129,0.092-0.242,0.209-0.297c0.553-0.257,2.037,0.379,3.083,0.955C298.244,409.335,297.104,409.358,296.67,408.985z"/>
			</g>
			<path style="fill:#263238;" d="M301.038,407.947l9.717-0.606c0.338-0.036,0.641,0.208,0.678,0.546
				c0,0.003,0.001,0.007,0.001,0.01l0.953,7.666c0.052,0.838-0.579,1.562-1.416,1.624c-3.394,0.156-5.022,0.062-9.301,0.295
				c-2.625,0.157-7.797,0.715-11.419,0.364c-3.622-0.351-3.178-3.921-1.614-4.092c3.709-0.422,8.622-3.148,10.943-5.216
				C299.987,408.185,300.5,407.977,301.038,407.947z"/>
		</g>
		<path style="fill:#EBB376;" d="M284.904,231.816c2.1-0.929,4.596,0,4.596,0s0.909,4.857,6.434,5.167
			c0.668,0.039,1.403,0.01,2.206-0.097c7.489-1.026,6.667-12.162,6.667-12.162c-3.106,0.232-5.738-0.677-7.799-1.877c0,0,0,0,0-0.01
			c-3.28-1.906-5.109-4.567-5.109-4.567L284.904,231.816z"/>
		<path style="opacity:0.2;enable-background:new    ;" d="M284.904,231.816c2.1-0.929,4.596,0,4.596,0s0.909,4.857,6.434,5.167
			c1.926-4.77,1.674-10.237,1.074-14.136c0,0,0,0,0-0.01c-3.28-1.906-5.109-4.567-5.109-4.567L284.904,231.816z"/>
		<g>
			<path style="fill:#263238;" d="M279.676,207.196c3.699,1.603,2.92,5.656-3.38,12.958c-3.75-3.337-5.686-10.826-3.652-13.186
				C274.678,204.608,276.454,205.812,279.676,207.196z"/>
			<path style="fill:#EBB376;" d="M294.931,210.635c1.161,8.079,2.244,12.743-0.929,17.673c-4.783,7.41-15.386,5.799-18.941-1.773
				c-3.182-6.803-4.554-18.875,2.596-23.66c5.092-3.445,12.013-2.11,15.458,2.982C294.082,207.287,294.704,208.923,294.931,210.635z
				"/>
			<path style="fill:#263238;" d="M283.471,215.287c0.134,0.649-0.104,1.248-0.528,1.333c-0.424,0.086-0.87-0.364-1.004-1.013
				c-0.134-0.649,0.095-1.244,0.516-1.338C282.876,214.176,283.294,214.657,283.471,215.287z"/>
			<path style="fill:#263238;" d="M276.093,216.825c0.134,0.649-0.104,1.247-0.528,1.333c-0.424,0.085-0.878-0.36-1.016-1.018
				c-0.138-0.658,0.104-1.247,0.528-1.333C275.501,215.722,275.959,216.176,276.093,216.825z"/>
			<path style="fill:#D58745;" d="M278.564,216.633c-0.363,2.145-1.021,4.23-1.954,6.196c1.395,0.829,3.226-0.065,3.226-0.065
				L278.564,216.633z"/>
			<path style="fill:#263238;" d="M290.289,204.223c-3.465,2.05-2.175,5.976,4.995,12.416c3.301-3.785,4.277-11.467,1.952-13.537
				C294.911,201.032,293.317,202.438,290.289,204.223z"/>
			<path style="fill:#EBB376;" d="M300.051,216.229c-0.155,2.049-1.117,3.952-2.673,5.293c-2.077,1.753-4.239,0.166-4.609-2.381
				c-0.331-2.297,0.355-5.98,2.891-6.745C298.196,211.63,300.23,213.716,300.051,216.229z"/>
			<path style="fill:#263238;" d="M286.782,211.469c-0.115,0.103-0.276,0.136-0.423,0.088c-0.985-0.369-2.087-0.252-2.972,0.317
				c-0.179,0.139-0.437,0.107-0.577-0.072c-0.139-0.179-0.107-0.438,0.073-0.577c0,0,0.001-0.001,0.002-0.001
				c1.1-0.747,2.495-0.914,3.741-0.448c0.217,0.068,0.337,0.299,0.269,0.516c-0.001,0.003-0.002,0.006-0.003,0.009
				C286.864,211.362,286.827,211.419,286.782,211.469z"/>
			<path style="fill:#263238;" d="M272.079,213.461c-0.082-0.013-0.158-0.053-0.217-0.112c-0.126-0.189-0.076-0.444,0.113-0.57
				c0.003-0.002,0.005-0.003,0.008-0.005c1.104-0.75,2.504-0.916,3.752-0.445c0.207,0.092,0.301,0.336,0.208,0.543l0,0.001
				c-0.097,0.204-0.336,0.295-0.544,0.208l0,0c-0.996-0.343-2.096-0.195-2.967,0.399
				C272.317,213.526,272.188,213.519,272.079,213.461z"/>
			<path style="fill:#263238;" d="M296.377,204.037c0,0,1.78-3.541-2.898-6.603c-4.678-3.062-18.841-0.67-23.912,5.742
				c-5.072,6.411-0.67,10.335-0.67,10.335s-0.383-1.837,0.478-3.119c0,0,0.837,1.798,2.448,2.517
				c1.611,0.719,0.538,0.492,0.538,0.492s-0.26-2.377,1.535-4.674c0,0,2.172,2.144,4.328,2.603c0,0,0.529-2.316,2.348-3.464
				c0,0,0.884,2.824,2.23,3.097c0,0-0.125-2.314,3.033-3.958c0,0,0.345,2.201,1.225,2.775
				C287.059,209.779,288.547,204.803,296.377,204.037z"/>
			<path style="fill:none;stroke:#263238;stroke-width:0.75;stroke-linecap:round;stroke-linejoin:round;stroke-miterlimit:10;" d="
				M281.917,225.102c0,0,1.525-2.405,4.587-3.266"/>
			<g>
				
					<path style="fill:none;stroke:#263238;stroke-width:0.5263;stroke-linecap:round;stroke-linejoin:round;stroke-miterlimit:10;" d="
					M278.93,216.488c0.392,2.072,2.112,3.487,3.842,3.16c1.73-0.327,2.814-2.273,2.421-4.346c-0.392-2.072-2.113-3.487-3.842-3.16
					C279.621,212.47,278.537,214.416,278.93,216.488z"/>
				
					<path style="fill:none;stroke:#263238;stroke-width:0.5263;stroke-linecap:round;stroke-linejoin:round;stroke-miterlimit:10;" d="
					M270.337,217.976c0.392,2.072,2.113,3.487,3.842,3.16c1.729-0.327,2.814-2.273,2.421-4.346c-0.392-2.072-2.113-3.487-3.842-3.16
					C271.028,213.958,269.944,215.903,270.337,217.976z"/>
				
					<path style="fill:none;stroke:#263238;stroke-width:0.5263;stroke-linecap:round;stroke-linejoin:round;stroke-miterlimit:10;" d="
					M278.93,216.488c0,0-1.416-0.851-2.33,0.302"/>
				
					<line style="fill:none;stroke:#263238;stroke-width:0.5263;stroke-linecap:round;stroke-linejoin:round;stroke-miterlimit:10;" x1="285.193" y1="215.302" x2="292.692" y2="213.208"/>
			</g>
		</g>
		<path style="opacity:0.2;enable-background:new    ;" d="M311.161,319.8c-23.56,7.228-53.932,16.536-54.358,16.681
			c0,0-2.026-14.951,7.787-21.993c14.297-10.259,45.836-13.13,45.836-13.13S310.822,310.269,311.161,319.8z"/>
		<path style="fill:#263238;" d="M300.266,302.549l2.099-13.146l-0.838-6.865l47.752-3.183l0.753,7.689
			c0,0,5.68,26.833,1.741,34.121c-7.033,13.011-36.019,12.486-61.198,12.486c5.474,15.97,16.452,56.5,16.452,56.5l-13.166,5.953
			c0,0-25.411-46.227-31.185-66.229C257.578,312.215,282.286,306.908,300.266,302.549z"/>
		<g>
			<polygon style="fill:#407BFF;" points="309.986,393.732 292.316,400.921 288.199,393.698 307.741,386.184 			"/>
			<polygon style="opacity:0.2;fill:#FFFFFF;" points="309.986,393.732 292.316,400.921 288.199,393.698 307.741,386.184 			"/>
		</g>
		<g>
			<g>
				<polygon points="334.313,287.492 350.585,286.519 349.603,280.475 333.693,281.496 				"/>
				<polygon points="304.23,283.385 301.528,283.558 302.365,289.403 304.703,289.263 				"/>
				<polygon points="306.607,289.149 332.403,287.606 331.92,281.609 306,283.272 				"/>
			</g>
			<path style="fill:none;stroke:#FFFFFF;stroke-linecap:round;stroke-linejoin:round;stroke-miterlimit:10;" d="M318.967,288.329
				l-4.63,0.396c-0.958,0.082-1.801-0.628-1.883-1.586l-0.187-2.182c-0.082-0.958,0.628-1.801,1.586-1.883l4.63-0.397
				c0.958-0.082,1.801,0.628,1.883,1.586l0.187,2.182C320.636,287.404,319.926,288.247,318.967,288.329z"/>
			
				<line style="fill:none;stroke:#FFFFFF;stroke-linecap:round;stroke-linejoin:round;stroke-miterlimit:10;" x1="317.477" y1="285.701" x2="319.391" y2="285.44"/>
		</g>
		<g>
			<path style="opacity:0.2;enable-background:new    ;" d="M300.474,241.232c0,0,4.84,17.106,10.687,28.69
				c0,0-9.214-17.17-12.65-30.406L300.474,241.232z"/>
			<g>
				<path style="fill:#407BFF;" d="M300.719,244.421l2.488-3.254h1.34l1.909,2.02l0.196,2.286c-2.349,1.051-5.933,0.011-5.933,0.011
					V244.421z"/>
				<path style="fill:#407BFF;" d="M303.112,242.041c0,0,0-6.328-1.34-12.356l1.34,0.574c0,0,2.009,5.742,1.34,12.632
					L303.112,242.041z"/>
				<path style="fill:#407BFF;" d="M301.418,244.517c0,0-9.406-3.719-10.313-9.82l-0.658,1.155c0,0,2.241,7.708,12.142,9.622
					L301.418,244.517z"/>
				<path style="fill:#407BFF;" d="M305.337,243.943c0,0,3.176-0.387,4.468-3.351c2.235-5.128-0.027-12.659,5.523-15.988
					l3.105,1.097c0,0-2.743,1.925-3.604,5.226c-1.123,4.304-2.392,14.947-9.492,14.547V243.943z"/>
			</g>
			<path style="fill:#407BFF;" d="M303.115,222.859l-4.605,11.322l-0.371,2.705l-3.271-1.557l-5.271-3.141
				c0,0-2.334,3.268,1.577,8.372l3.695-3.062l5.194,5.69l1.466-6.966l6.053,1.946c0,0,2.432-10.149,2.432-13.065L303.115,222.859z"
				/>
			<path style="opacity:0.6;fill:#FFFFFF;enable-background:new    ;" d="M310.01,225.104c0,2.912-2.429,13.062-2.429,13.062
				l-6.057-1.945l-1.461,6.967l-5.196-5.689l-3.696,3.058c-3.909-5.099-1.577-8.37-1.577-8.37l5.273,3.145l3.27,1.558l0.377-2.709
				l4.596-11.321L310.01,225.104z"/>
			<polygon style="opacity:0.2;enable-background:new    ;" points="307.581,238.166 301.524,236.221 300.063,243.188 
				299.744,234.431 			"/>
			<polygon style="opacity:0.2;enable-background:new    ;" points="300.063,243.188 294.867,237.498 291.171,240.556 
				293.813,235.844 			"/>
		</g>
		<path style="fill:#EBB376;" d="M274.861,254.119l-7.753-0.873c0,0-1.786-1.484-3.7-1.739c-1.914-0.255-10.335,0.494-11.356,0.885
			c-1.021,0.391-0.638,8.421,0,8.553c0.638,0.132,10.59,0.251,11.483,0c0.893-0.251,3.062-2.675,3.062-2.675l6.796,1.198
			L274.861,254.119z"/>
		<g>
			<path style="fill:#407BFF;" d="M324.845,226.096c-3.192,0.656-18.013,28.76-18.013,28.76l-38.073-1.908l-0.565,6.519
				c0,0,34.125,7.429,41.815,6.031c7.69-1.398,21.564-25.424,22.393-28.065C334.287,231.437,326.982,225.657,324.845,226.096z"/>
			<path style="opacity:0.6;fill:#FFFFFF;enable-background:new    ;" d="M324.845,226.096c-3.192,0.656-18.013,28.76-18.013,28.76
				l-38.073-1.908l-0.565,6.519c0,0,34.125,7.429,41.815,6.031c7.69-1.398,21.564-25.424,22.393-28.065
				C334.287,231.437,326.982,225.657,324.845,226.096z"/>
		</g>
	</g>
</g>
<g id="Progress_bar">
	<g>
		<g>
			<path style="fill:#407BFF;" d="M295.537,152.69H190.067c-2.216,0-4.014,1.797-4.014,4.014s1.797,4.014,4.014,4.014h105.471
				c2.217,0,4.014-1.797,4.014-4.014S297.754,152.69,295.537,152.69z"/>
			<path style="opacity:0.6;fill:#FFFFFF;enable-background:new    ;" d="M295.537,152.69H190.067c-2.216,0-4.014,1.797-4.014,4.014
				s1.797,4.014,4.014,4.014h105.471c2.217,0,4.014-1.797,4.014-4.014S297.754,152.69,295.537,152.69z"/>
			<path style="fill:#407BFF;" d="M253.73,153.589h-63.579c-1.72,0-3.114,1.394-3.114,3.114s1.395,3.114,3.114,3.114h63.579
				c1.72,0,3.114-1.394,3.114-3.114S255.451,153.589,253.73,153.589z"/>
		</g>
		<g>
			<path style="fill:#263238;" d="M220.104,141.876c0,1.039-0.752,1.668-1.996,1.668h-1.183v1.449h-0.684v-4.785h1.866
				C219.352,140.208,220.104,140.836,220.104,141.876z M219.42,141.876c0-0.684-0.458-1.073-1.333-1.073h-1.162v2.146h1.162
				C218.962,142.949,219.42,142.559,219.42,141.876z"/>
			<path style="fill:#263238;" d="M224.306,144.993l-1.032-1.47c-0.096,0.007-0.198,0.014-0.301,0.014h-1.183v1.456h-0.684v-4.785
				h1.866c1.244,0,1.996,0.629,1.996,1.668c0,0.738-0.383,1.271-1.053,1.511l1.135,1.607H224.306z M224.286,141.876
				c0-0.684-0.458-1.073-1.333-1.073h-1.162v2.153h1.162C223.828,142.956,224.286,142.559,224.286,141.876z"/>
			<path style="fill:#263238;" d="M225.685,142.6c0-1.401,1.08-2.447,2.55-2.447c1.456,0,2.536,1.039,2.536,2.447
				s-1.08,2.447-2.536,2.447C226.765,145.047,225.685,144.001,225.685,142.6z M230.087,142.6c0-1.06-0.793-1.839-1.853-1.839
				c-1.073,0-1.866,0.779-1.866,1.839s0.793,1.839,1.866,1.839C229.294,144.439,230.087,143.66,230.087,142.6z"/>
			<path style="fill:#263238;" d="M235.13,142.573h0.656v1.866c-0.479,0.403-1.142,0.608-1.812,0.608c-1.47,0-2.55-1.032-2.55-2.447
				c0-1.415,1.08-2.447,2.563-2.447c0.759,0,1.401,0.253,1.839,0.738l-0.424,0.424c-0.396-0.383-0.848-0.554-1.388-0.554
				c-1.107,0-1.907,0.773-1.907,1.839c0,1.053,0.8,1.839,1.9,1.839c0.403,0,0.779-0.089,1.121-0.308V142.573z"/>
			<path style="fill:#263238;" d="M240.289,144.993l-1.032-1.47c-0.096,0.007-0.198,0.014-0.301,0.014h-1.183v1.456h-0.684v-4.785
				h1.866c1.244,0,1.996,0.629,1.996,1.668c0,0.738-0.383,1.271-1.053,1.511l1.135,1.607H240.289z M240.268,141.876
				c0-0.684-0.458-1.073-1.333-1.073h-1.162v2.153h1.162C239.81,142.956,240.268,142.559,240.268,141.876z"/>
			<path style="fill:#263238;" d="M245.53,144.398v0.595h-3.473v-4.785h3.377v0.595h-2.693v1.47h2.399v0.581h-2.399v1.545H245.53z"
				/>
			<path style="fill:#263238;" d="M246.198,144.446l0.253-0.533c0.355,0.321,0.964,0.554,1.579,0.554
				c0.827,0,1.183-0.321,1.183-0.738c0-1.169-2.898-0.431-2.898-2.208c0-0.738,0.574-1.367,1.832-1.367
				c0.561,0,1.142,0.15,1.538,0.424l-0.226,0.547c-0.417-0.267-0.889-0.39-1.313-0.39c-0.813,0-1.162,0.342-1.162,0.759
				c0,1.169,2.898,0.438,2.898,2.194c0,0.732-0.588,1.36-1.852,1.36C247.298,145.047,246.581,144.801,246.198,144.446z"/>
			<path style="fill:#263238;" d="M250.441,144.446l0.253-0.533c0.355,0.321,0.964,0.554,1.579,0.554
				c0.827,0,1.183-0.321,1.183-0.738c0-1.169-2.898-0.431-2.898-2.208c0-0.738,0.574-1.367,1.832-1.367
				c0.561,0,1.142,0.15,1.538,0.424l-0.226,0.547c-0.417-0.267-0.889-0.39-1.313-0.39c-0.813,0-1.162,0.342-1.162,0.759
				c0,1.169,2.899,0.438,2.899,2.194c0,0.732-0.588,1.36-1.853,1.36C251.542,145.047,250.824,144.801,250.441,144.446z"/>
			<path style="fill:#263238;" d="M260.057,140.208v0.465l-1.935,4.32h-0.725l1.894-4.191h-2.188v0.854h-0.656v-1.449H260.057z"/>
			<path style="fill:#263238;" d="M260.52,142.6c0-1.559,0.834-2.447,1.955-2.447c1.114,0,1.948,0.889,1.948,2.447
				c0,1.559-0.834,2.447-1.948,2.447C261.354,145.047,260.52,144.159,260.52,142.6z M263.74,142.6c0-1.224-0.519-1.839-1.265-1.839
				c-0.752,0-1.271,0.615-1.271,1.839s0.52,1.839,1.271,1.839C263.22,144.439,263.74,143.824,263.74,142.6z"/>
			<path style="fill:#263238;" d="M265.002,141.472c0-0.779,0.451-1.306,1.114-1.306s1.107,0.52,1.107,1.306
				c0,0.786-0.444,1.306-1.107,1.306S265.002,142.251,265.002,141.472z M266.787,141.472c0-0.574-0.253-0.916-0.67-0.916
				c-0.41,0-0.67,0.349-0.67,0.916s0.26,0.916,0.67,0.916C266.534,142.388,266.787,142.046,266.787,141.472z M269.001,140.208h0.526
				l-3.267,4.785h-0.526L269.001,140.208z M268.038,143.728c0-0.779,0.444-1.306,1.107-1.306c0.663,0,1.114,0.526,1.114,1.306
				s-0.451,1.306-1.114,1.306C268.482,145.034,268.038,144.507,268.038,143.728z M269.815,143.728c0-0.567-0.26-0.916-0.67-0.916
				c-0.417,0-0.67,0.342-0.67,0.916s0.253,0.916,0.67,0.916C269.555,144.644,269.815,144.295,269.815,143.728z"/>
		</g>
	</g>
</g>
<g id="Table">
	<g>
		<g>
			<polygon style="fill:#407BFF;" points="115.082,262.89 115.082,259.619 112.886,259.619 115.082,258.343 113.435,258.343 
				115.631,256.907 117.709,256.907 117.709,255.26 115.298,255.26 117.709,254.299 117.709,250.732 115.298,250.732 
				115.298,248.398 112.886,248.398 115.298,247.59 115.298,245.928 113.573,245.928 114.984,244.517 116.206,243.295 
				153.586,243.295 153.586,244.968 156.056,244.968 153.311,246.203 153.311,247.59 158.354,247.59 158.354,250.165 
				160.584,250.165 158.354,251.28 158.354,254.162 156.769,254.162 156.769,255.534 153.586,255.534 153.586,259.619 
				155.37,259.619 153.911,261.078 153.911,262.905 			"/>
			<polygon style="opacity:0.7;fill:#FFFFFF;enable-background:new    ;" points="115.082,262.89 115.082,259.619 112.886,259.619 
				115.082,258.343 113.435,258.343 115.631,256.907 117.709,256.907 117.709,255.26 115.298,255.26 117.709,254.299 
				117.709,250.732 115.298,250.732 115.298,248.398 112.886,248.398 115.298,247.59 115.298,245.928 113.573,245.928 
				114.984,244.517 116.206,243.295 153.586,243.295 153.586,244.968 156.056,244.968 153.311,246.203 153.311,247.59 
				158.354,247.59 158.354,250.165 160.584,250.165 158.354,251.28 158.354,254.162 156.769,254.162 156.769,255.534 
				153.586,255.534 153.586,259.619 155.37,259.619 153.911,261.078 153.911,262.905 			"/>
			<polygon style="opacity:0.1;enable-background:new    ;" points="115.082,262.89 115.082,259.619 112.886,259.619 
				115.082,258.343 113.435,258.343 115.631,256.907 117.709,256.907 117.709,255.26 115.298,255.26 117.709,254.299 
				117.709,250.732 115.298,250.732 115.298,248.398 112.886,248.398 115.298,247.59 115.298,245.928 113.573,245.928 
				114.984,244.517 116.206,243.295 135.895,243.295 135.895,244.968 138.365,244.968 135.62,246.203 135.62,247.59 140.664,247.59 
				140.664,250.165 142.893,250.165 140.664,251.28 140.664,254.162 139.078,254.162 139.078,255.534 135.895,255.534 
				135.895,259.619 137.679,259.619 136.219,261.078 136.219,262.905 			"/>
			<polygon style="opacity:0.1;enable-background:new    ;" points="153.311,247.59 135.62,247.59 153.311,246.947 			"/>
			<polygon style="opacity:0.1;enable-background:new    ;" points="153.586,255.534 135.895,255.534 135.818,256.769 			"/>
			<polygon style="opacity:0.1;enable-background:new    ;" points="156.769,254.162 139.078,254.162 156.769,254.78 			"/>
			<polygon style="opacity:0.1;enable-background:new    ;" points="153.586,259.619 135.895,259.619 153.586,258.965 			"/>
			<polygon style="opacity:0.1;enable-background:new    ;" points="153.911,261.078 136.219,261.078 136.219,261.753 			"/>
			<polygon style="opacity:0.1;enable-background:new    ;" points="158.354,250.165 140.664,250.165 158.354,249.597 			"/>
			<polygon style="opacity:0.1;enable-background:new    ;" points="153.586,244.968 135.895,244.968 153.586,244.35 			"/>
			<polygon style="opacity:0.1;enable-background:new    ;" points="115.298,245.928 133.242,245.928 115.298,246.477 			"/>
			<polygon style="opacity:0.1;enable-background:new    ;" points="135.62,247.59 115.298,247.59 133.722,248.193 			"/>
			<polygon style="opacity:0.1;enable-background:new    ;" points="140.664,250.165 115.298,250.732 115.298,250.165 			"/>
			<polygon style="opacity:0.1;enable-background:new    ;" points="140.664,251.28 128.116,251.28 140.664,251.898 			"/>
			<polygon style="opacity:0.1;enable-background:new    ;" points="117.709,254.299 135.895,254.162 117.709,253.75 			"/>
			<polygon style="opacity:0.1;enable-background:new    ;" points="117.709,255.26 136.219,255.26 117.709,255.877 			"/>
			<polygon style="opacity:0.1;enable-background:new    ;" points="115.082,258.343 135.62,258.343 135.62,258.965 			"/>
			<polygon style="opacity:0.1;enable-background:new    ;" points="115.082,259.619 129.965,259.619 115.082,260.029 			"/>
		</g>
		<g>
			<polygon style="fill:#263238;" points="219.715,263.523 220.537,260.419 254.288,260.419 269.83,261.971 270.422,263.523 			"/>
			<polygon style="opacity:0.4;enable-background:new    ;" points="254.288,260.419 254.288,263.523 219.715,263.523 
				220.537,260.419 			"/>
		</g>
		<g>
			<path style="fill:#263238;" d="M147.061,226.031l7.386,33.501c0.24,1.103,1.314,1.904,2.398,1.904h23.897
				c1.075,0,1.765-1.001,1.516-2.105l-7.377-33.246c-0.249-1.094-1.314-1.639-2.398-1.639h-23.897
				C147.503,224.447,146.822,224.938,147.061,226.031z"/>
			<path style="opacity:0.4;fill:#FFFFFF;enable-background:new    ;" d="M148.426,226.031l7.386,33.501
				c0.24,1.103,1.314,1.904,2.398,1.904h22.525c1.084,0,1.765-1.001,1.525-2.105l-7.386-33.246c-0.24-1.094-1.314-1.639-2.398-1.639
				h-22.525C148.868,224.447,148.187,224.938,148.426,226.031z"/>
			<path style="fill:#263238;" d="M158.41,259.234v3.105c0,0.796,0.938,1.122,1.725,1.122h55.271c0.796,0,1.755-0.326,1.755-1.122
				v-3.105H158.41z"/>
			<path style="opacity:0.2;fill:#FFFFFF;enable-background:new    ;" d="M217.161,259.234v3.105c0,0.796-0.938,1.122-1.725,1.122
				h-55.271c-0.796,0-1.755-0.326-1.755-1.122v-3.105H217.161z"/>
			<path style="opacity:0.4;enable-background:new    ;" d="M217.161,259.234v3.105c0,0.796-0.938,1.122-1.725,1.122h-25.44
				c-0.796,0-1.741-0.326-1.741-1.122v-3.105H217.161z"/>
			<polygon style="fill:#407BFF;enable-background:new    ;" points="180.916,256.769 174.213,226.599 149.771,226.599 
				156.423,256.769 			"/>
		</g>
		<g>
			<path style="fill:#263238;" d="M247.508,245.559c0.15,1.64-1.049,2.971-2.68,2.971h-51.702c-1.64,0-3.088-1.332-3.238-2.971
				l-3.071-33.101c-0.033-0.341-0.008-0.666,0.066-0.965c0.291-1.165,1.315-2.006,2.613-2.006h51.702
				c1.64,0,3.088,1.332,3.238,2.971L247.508,245.559z"/>
			<path style="opacity:0.4;enable-background:new    ;" d="M244.645,248.53h-51.52c-1.64,0-3.088-1.332-3.238-2.971l-3.071-33.101
				c-0.033-0.341-0.008-0.666,0.066-0.965h51.52c1.631,0,3.079,1.332,3.237,2.971l3.071,33.101
				C244.745,247.906,244.719,248.23,244.645,248.53z"/>
			<polygon style="fill:#263238;" points="209.124,228.228 219.82,228.228 216.969,258.851 233.883,261.391 233.883,263.523 
				198.26,263.523 198.26,261.391 205.557,258.851 			"/>
			<polygon style="opacity:0.1;fill:#FFFFFF;enable-background:new    ;" points="219.82,228.228 211.895,263.037 205.557,262.848 
				209.124,228.228 			"/>
		</g>
		<g>
			<g>
				<polygon style="fill:#263238;" points="184.143,418.242 178.215,418.242 167.565,269.966 175.429,269.966 				"/>
				<polygon style="opacity:0.1;fill:#FFFFFF;enable-background:new    ;" points="184.146,418.242 178.215,418.242 
					168.085,277.331 167.562,270.204 175.429,270.204 175.854,277.331 				"/>
				<polygon style="opacity:0.2;enable-background:new    ;" points="175.854,276.977 168.085,276.977 167.562,270.204 
					175.429,270.204 				"/>
			</g>
			<g>
				<polygon style="fill:#263238;" points="256.671,418.242 250.743,418.242 249.775,269.966 257.639,269.966 				"/>
				<polygon style="opacity:0.1;fill:#FFFFFF;enable-background:new    ;" points="257.643,270.204 257.488,294.128 
					256.676,418.242 250.744,418.242 249.932,294.128 249.777,270.204 				"/>
				<polygon style="opacity:0.2;enable-background:new    ;" points="257.643,270.204 257.488,294.394 249.932,294.394 
					249.777,270.204 				"/>
			</g>
			<g>
				<polygon style="fill:#263238;" points="319.602,418.242 313.675,418.242 303.025,269.966 310.889,269.966 				"/>
				<polygon style="opacity:0.1;fill:#FFFFFF;enable-background:new    ;" points="319.606,418.242 313.675,418.242 
					303.544,277.331 303.022,270.204 310.888,270.204 311.314,277.331 				"/>
				<polygon style="opacity:0.2;enable-background:new    ;" points="311.314,276.977 303.544,276.977 303.022,270.204 
					310.888,270.204 				"/>
			</g>
			<g>
				<polygon style="fill:#263238;" points="116.334,418.242 110.406,418.242 119.12,269.966 126.983,269.966 				"/>
				<polygon style="opacity:0.1;fill:#FFFFFF;enable-background:new    ;" points="126.982,270.204 126.46,277.331 116.329,418.242 
					110.408,418.242 118.69,277.331 119.116,270.204 				"/>
				<polygon style="opacity:0.2;enable-background:new    ;" points="119.116,270.204 126.982,270.204 126.46,276.977 
					118.69,276.977 				"/>
			</g>
			<g>
				<path style="fill:#407BFF;" d="M314.96,273.679H115.049c-1.194,0-2.162-0.968-2.162-2.162v-5.265h204.236v5.265
					C317.122,272.711,316.154,273.679,314.96,273.679z"/>
				<path style="opacity:0.4;fill:#FFFFFF;enable-background:new    ;" d="M314.96,273.679H115.049
					c-1.194,0-2.162-0.968-2.162-2.162v-5.265h204.236v5.265C317.122,272.711,316.154,273.679,314.96,273.679z"/>
			</g>
			<rect x="112.886" y="266.252" style="opacity:0.2;enable-background:new    ;" width="204.236" height="3.713"/>
			<g>
				<path style="fill:#407BFF;" d="M320.796,267.22H109.212c-1.155,0-2.092-0.937-2.092-2.092l0,0c0-1.155,0.937-2.092,2.092-2.092
					h211.584c1.155,0,2.092,0.937,2.092,2.092l0,0C322.888,266.284,321.952,267.22,320.796,267.22z"/>
				<path style="opacity:0.4;fill:#FFFFFF;enable-background:new    ;" d="M320.796,267.22H109.212
					c-1.155,0-2.092-0.937-2.092-2.092l0,0c0-1.155,0.937-2.092,2.092-2.092h211.584c1.155,0,2.092,0.937,2.092,2.092l0,0
					C322.888,266.284,321.952,267.22,320.796,267.22z"/>
			</g>
		</g>
		<g>
			<polygon style="fill:#407BFF;" points="269.618,253.602 269.618,254.299 267.206,255.26 269.618,255.26 269.618,256.907 
				267.539,256.907 265.344,258.343 266.991,258.343 264.795,259.619 266.991,259.619 266.991,262.89 305.819,262.905 
				305.819,261.078 307.278,259.619 305.494,259.619 305.494,255.534 308.677,255.534 308.677,254.162 310.263,254.162 
				310.263,253.602 			"/>
			<polygon style="opacity:0.9;fill:#FFFFFF;enable-background:new    ;" points="269.618,253.602 269.618,254.299 267.206,255.26 
				269.618,255.26 269.618,256.907 267.539,256.907 265.344,258.343 266.991,258.343 264.795,259.619 266.991,259.619 
				266.991,262.89 305.819,262.905 305.819,261.078 307.278,259.619 305.494,259.619 305.494,255.534 308.677,255.534 
				308.677,254.162 310.263,254.162 310.263,253.602 			"/>
			<polygon style="opacity:0.1;enable-background:new    ;" points="269.618,253.602 269.618,254.299 267.206,255.26 
				269.618,255.26 269.618,256.907 267.539,256.907 265.344,258.343 266.991,258.343 264.795,259.619 266.991,259.619 
				266.991,262.89 288.128,262.905 288.128,261.078 289.587,259.619 287.803,259.619 287.803,255.534 290.986,255.534 
				290.986,254.162 292.572,254.162 292.572,253.602 			"/>
			<polygon style="opacity:0.1;enable-background:new    ;" points="305.494,255.534 287.803,255.534 287.726,256.769 			"/>
			<polygon style="opacity:0.1;enable-background:new    ;" points="308.677,254.162 290.986,254.162 308.677,254.78 			"/>
			<polygon style="opacity:0.1;enable-background:new    ;" points="305.494,259.619 287.803,259.619 305.494,258.965 			"/>
			<polygon style="opacity:0.1;enable-background:new    ;" points="305.819,261.078 288.128,261.078 288.128,261.753 			"/>
			<polygon style="opacity:0.1;enable-background:new    ;" points="269.618,254.299 287.803,254.162 269.618,253.75 			"/>
			<polygon style="opacity:0.1;enable-background:new    ;" points="269.618,255.26 288.128,255.26 269.618,255.877 			"/>
			<polygon style="opacity:0.1;enable-background:new    ;" points="266.99,258.343 287.529,258.343 287.529,258.965 			"/>
			<polygon style="opacity:0.1;enable-background:new    ;" points="266.99,259.619 281.873,259.619 266.99,260.029 			"/>
		</g>
	</g>
</g>
</svg>
